<mxfile host="app.diagrams.net" modified="2021-09-28T23:42:35.827Z" agent="5.0 (Macintosh; Intel Mac OS X 10_15_7) AppleWebKit/537.36 (KHTML, like Gecko) Chrome/92.0.4515.134 Safari/537.36" etag="Qw5IAi4k3NPnIu_O36Me" version="15.2.9" type="github">
  <diagram id="z2nhw6IkiNg6RQVJbCE1" name="Page-1">
    <mxGraphModel dx="1474" dy="1219" grid="1" gridSize="10" guides="1" tooltips="1" connect="1" arrows="1" fold="1" page="1" pageScale="1" pageWidth="1600" pageHeight="900" math="0" shadow="0">
      <root>
        <mxCell id="0" />
        <mxCell id="1" parent="0" />
        <mxCell id="TDv3wZ2uZHHhZxIfWn5h-1" style="edgeStyle=orthogonalEdgeStyle;rounded=0;orthogonalLoop=1;jettySize=auto;html=1;exitX=1;exitY=0.5;exitDx=0;exitDy=0;entryX=0;entryY=0.5;entryDx=0;entryDy=0;" edge="1" parent="1" source="TDv3wZ2uZHHhZxIfWn5h-3" target="TDv3wZ2uZHHhZxIfWn5h-39">
          <mxGeometry relative="1" as="geometry" />
        </mxCell>
        <mxCell id="TDv3wZ2uZHHhZxIfWn5h-2" style="edgeStyle=orthogonalEdgeStyle;rounded=0;orthogonalLoop=1;jettySize=auto;html=1;exitX=1;exitY=0.5;exitDx=0;exitDy=0;entryX=0;entryY=0.5;entryDx=0;entryDy=0;" edge="1" parent="1" source="TDv3wZ2uZHHhZxIfWn5h-3" target="TDv3wZ2uZHHhZxIfWn5h-11">
          <mxGeometry relative="1" as="geometry" />
        </mxCell>
        <mxCell id="TDv3wZ2uZHHhZxIfWn5h-3" value="normal_bam" style="whiteSpace=wrap;html=1;" vertex="1" parent="1">
          <mxGeometry x="40" y="198" width="80" height="30" as="geometry" />
        </mxCell>
        <mxCell id="TDv3wZ2uZHHhZxIfWn5h-4" style="edgeStyle=orthogonalEdgeStyle;rounded=0;orthogonalLoop=1;jettySize=auto;html=1;exitX=1;exitY=0.5;exitDx=0;exitDy=0;entryX=0;entryY=0.5;entryDx=0;entryDy=0;" edge="1" parent="1" source="TDv3wZ2uZHHhZxIfWn5h-6" target="TDv3wZ2uZHHhZxIfWn5h-41">
          <mxGeometry relative="1" as="geometry" />
        </mxCell>
        <mxCell id="TDv3wZ2uZHHhZxIfWn5h-5" style="edgeStyle=orthogonalEdgeStyle;rounded=0;orthogonalLoop=1;jettySize=auto;html=1;exitX=1;exitY=0.5;exitDx=0;exitDy=0;entryX=0;entryY=0.5;entryDx=0;entryDy=0;" edge="1" parent="1" source="TDv3wZ2uZHHhZxIfWn5h-6" target="TDv3wZ2uZHHhZxIfWn5h-19">
          <mxGeometry relative="1" as="geometry" />
        </mxCell>
        <mxCell id="TDv3wZ2uZHHhZxIfWn5h-6" value="tumor_bam" style="whiteSpace=wrap;html=1;" vertex="1" parent="1">
          <mxGeometry x="40" y="250" width="80" height="30" as="geometry" />
        </mxCell>
        <mxCell id="TDv3wZ2uZHHhZxIfWn5h-7" value="mutect2_GetPileupSummaries" style="swimlane;fontStyle=0;childLayout=stackLayout;horizontal=1;startSize=26;fillColor=none;horizontalStack=0;resizeParent=1;resizeParentMax=0;resizeLast=0;collapsible=1;marginBottom=0;" vertex="1" parent="1">
          <mxGeometry x="220" y="350" width="240" height="442" as="geometry">
            <mxRectangle x="280" y="400" width="200" height="26" as="alternateBounds" />
          </mxGeometry>
        </mxCell>
        <mxCell id="TDv3wZ2uZHHhZxIfWn5h-8" value="gatk GetPileupSummaries" style="swimlane;fontStyle=0;childLayout=stackLayout;horizontal=1;startSize=26;fillColor=none;horizontalStack=0;resizeParent=1;resizeParentMax=0;resizeLast=0;collapsible=1;marginBottom=0;" vertex="1" parent="TDv3wZ2uZHHhZxIfWn5h-7">
          <mxGeometry y="26" width="240" height="208" as="geometry" />
        </mxCell>
        <mxCell id="TDv3wZ2uZHHhZxIfWn5h-9" value="--tmp-dir {{ temp_dir }}/temp_GetPileupSummaries_normal_{{ loop.index }}/" style="text;strokeColor=none;fillColor=none;align=left;verticalAlign=top;spacingLeft=4;spacingRight=4;overflow=hidden;rotatable=0;points=[[0,0.5],[1,0.5]];portConstraint=eastwest;" vertex="1" parent="TDv3wZ2uZHHhZxIfWn5h-8">
          <mxGeometry y="26" width="240" height="26" as="geometry" />
        </mxCell>
        <mxCell id="TDv3wZ2uZHHhZxIfWn5h-10" value="--reference {{ constants.phoenix.reference_fasta }}" style="text;strokeColor=none;fillColor=none;align=left;verticalAlign=top;spacingLeft=4;spacingRight=4;overflow=hidden;rotatable=0;points=[[0,0.5],[1,0.5]];portConstraint=eastwest;" vertex="1" parent="TDv3wZ2uZHHhZxIfWn5h-8">
          <mxGeometry y="52" width="240" height="26" as="geometry" />
        </mxCell>
        <mxCell id="TDv3wZ2uZHHhZxIfWn5h-11" value="--input &quot;{{ normal_bam }}&quot;" style="text;strokeColor=none;fillColor=none;align=left;verticalAlign=top;spacingLeft=4;spacingRight=4;overflow=hidden;rotatable=0;points=[[0,0.5],[1,0.5]];portConstraint=eastwest;" vertex="1" parent="TDv3wZ2uZHHhZxIfWn5h-8">
          <mxGeometry y="78" width="240" height="26" as="geometry" />
        </mxCell>
        <mxCell id="TDv3wZ2uZHHhZxIfWn5h-12" value="--interval-set-rule UNION" style="text;strokeColor=none;fillColor=none;align=left;verticalAlign=top;spacingLeft=4;spacingRight=4;overflow=hidden;rotatable=0;points=[[0,0.5],[1,0.5]];portConstraint=eastwest;" vertex="1" parent="TDv3wZ2uZHHhZxIfWn5h-8">
          <mxGeometry y="104" width="240" height="26" as="geometry" />
        </mxCell>
        <mxCell id="TDv3wZ2uZHHhZxIfWn5h-13" value="-L &quot;{{ interval.contig }}:{{ interval.start }}-{{ interval.stop }}&quot;" style="text;strokeColor=none;fillColor=none;align=left;verticalAlign=top;spacingLeft=4;spacingRight=4;overflow=hidden;rotatable=0;points=[[0,0.5],[1,0.5]];portConstraint=eastwest;" vertex="1" parent="TDv3wZ2uZHHhZxIfWn5h-8">
          <mxGeometry y="130" width="240" height="26" as="geometry" />
        </mxCell>
        <mxCell id="TDv3wZ2uZHHhZxIfWn5h-14" value="--variant {{ constants.phoenix.gnomad_genome_mutect_contamination }}" style="text;strokeColor=none;fillColor=none;align=left;verticalAlign=top;spacingLeft=4;spacingRight=4;overflow=hidden;rotatable=0;points=[[0,0.5],[1,0.5]];portConstraint=eastwest;" vertex="1" parent="TDv3wZ2uZHHhZxIfWn5h-8">
          <mxGeometry y="156" width="240" height="26" as="geometry" />
        </mxCell>
        <mxCell id="TDv3wZ2uZHHhZxIfWn5h-15" value="--output {{ temp_dir }}/{{ loop.index }}.normal-pileups.table" style="text;strokeColor=none;fillColor=none;align=left;verticalAlign=top;spacingLeft=4;spacingRight=4;overflow=hidden;rotatable=0;points=[[0,0.5],[1,0.5]];portConstraint=eastwest;" vertex="1" parent="TDv3wZ2uZHHhZxIfWn5h-8">
          <mxGeometry y="182" width="240" height="26" as="geometry" />
        </mxCell>
        <mxCell id="TDv3wZ2uZHHhZxIfWn5h-16" value="gatk GetPileupSummaries" style="swimlane;fontStyle=0;childLayout=stackLayout;horizontal=1;startSize=26;fillColor=none;horizontalStack=0;resizeParent=1;resizeParentMax=0;resizeLast=0;collapsible=1;marginBottom=0;" vertex="1" parent="TDv3wZ2uZHHhZxIfWn5h-7">
          <mxGeometry y="234" width="240" height="208" as="geometry" />
        </mxCell>
        <mxCell id="TDv3wZ2uZHHhZxIfWn5h-17" value="--tmp-dir {{ temp_dir }}/temp_GetPileupSummaries_tumor_{{ loop.index }}/" style="text;strokeColor=none;fillColor=none;align=left;verticalAlign=top;spacingLeft=4;spacingRight=4;overflow=hidden;rotatable=0;points=[[0,0.5],[1,0.5]];portConstraint=eastwest;" vertex="1" parent="TDv3wZ2uZHHhZxIfWn5h-16">
          <mxGeometry y="26" width="240" height="26" as="geometry" />
        </mxCell>
        <mxCell id="TDv3wZ2uZHHhZxIfWn5h-18" value="--reference {{ constants.phoenix.reference_fasta }}" style="text;strokeColor=none;fillColor=none;align=left;verticalAlign=top;spacingLeft=4;spacingRight=4;overflow=hidden;rotatable=0;points=[[0,0.5],[1,0.5]];portConstraint=eastwest;" vertex="1" parent="TDv3wZ2uZHHhZxIfWn5h-16">
          <mxGeometry y="52" width="240" height="26" as="geometry" />
        </mxCell>
        <mxCell id="TDv3wZ2uZHHhZxIfWn5h-19" value="--input &quot;{{ tumor_bam }}&quot;" style="text;strokeColor=none;fillColor=none;align=left;verticalAlign=top;spacingLeft=4;spacingRight=4;overflow=hidden;rotatable=0;points=[[0,0.5],[1,0.5]];portConstraint=eastwest;" vertex="1" parent="TDv3wZ2uZHHhZxIfWn5h-16">
          <mxGeometry y="78" width="240" height="26" as="geometry" />
        </mxCell>
        <mxCell id="TDv3wZ2uZHHhZxIfWn5h-20" value="--interval-set-rule UNION" style="text;strokeColor=none;fillColor=none;align=left;verticalAlign=top;spacingLeft=4;spacingRight=4;overflow=hidden;rotatable=0;points=[[0,0.5],[1,0.5]];portConstraint=eastwest;" vertex="1" parent="TDv3wZ2uZHHhZxIfWn5h-16">
          <mxGeometry y="104" width="240" height="26" as="geometry" />
        </mxCell>
        <mxCell id="TDv3wZ2uZHHhZxIfWn5h-21" value="-L &quot;{{ interval.contig }}:{{ interval.start }}-{{ interval.stop }}&quot;" style="text;strokeColor=none;fillColor=none;align=left;verticalAlign=top;spacingLeft=4;spacingRight=4;overflow=hidden;rotatable=0;points=[[0,0.5],[1,0.5]];portConstraint=eastwest;" vertex="1" parent="TDv3wZ2uZHHhZxIfWn5h-16">
          <mxGeometry y="130" width="240" height="26" as="geometry" />
        </mxCell>
        <mxCell id="TDv3wZ2uZHHhZxIfWn5h-22" value="--variant {{ constants.phoenix.gnomad_genome_mutect_contamination }}" style="text;strokeColor=none;fillColor=none;align=left;verticalAlign=top;spacingLeft=4;spacingRight=4;overflow=hidden;rotatable=0;points=[[0,0.5],[1,0.5]];portConstraint=eastwest;" vertex="1" parent="TDv3wZ2uZHHhZxIfWn5h-16">
          <mxGeometry y="156" width="240" height="26" as="geometry" />
        </mxCell>
        <mxCell id="TDv3wZ2uZHHhZxIfWn5h-23" value="--output {{ temp_dir }}/{{ loop.index }}.tumor-pileups.table" style="text;strokeColor=none;fillColor=none;align=left;verticalAlign=top;spacingLeft=4;spacingRight=4;overflow=hidden;rotatable=0;points=[[0,0.5],[1,0.5]];portConstraint=eastwest;" vertex="1" parent="TDv3wZ2uZHHhZxIfWn5h-16">
          <mxGeometry y="182" width="240" height="26" as="geometry" />
        </mxCell>
        <mxCell id="TDv3wZ2uZHHhZxIfWn5h-24" value="Mutect2_merge_chunks" style="swimlane;fontStyle=0;childLayout=stackLayout;horizontal=1;startSize=26;fillColor=none;horizontalStack=0;resizeParent=1;resizeParentMax=0;resizeLast=0;collapsible=1;marginBottom=0;direction=east;" vertex="1" parent="1">
          <mxGeometry x="540" y="320" width="200" height="234" as="geometry">
            <mxRectangle x="600" y="370" width="160" height="26" as="alternateBounds" />
          </mxGeometry>
        </mxCell>
        <mxCell id="TDv3wZ2uZHHhZxIfWn5h-25" value="bcftools concat" style="swimlane;fontStyle=0;childLayout=stackLayout;horizontal=1;startSize=26;fillColor=none;horizontalStack=0;resizeParent=1;resizeParentMax=0;resizeLast=0;collapsible=1;marginBottom=0;" vertex="1" parent="TDv3wZ2uZHHhZxIfWn5h-24">
          <mxGeometry y="26" width="200" height="104" as="geometry" />
        </mxCell>
        <mxCell id="TDv3wZ2uZHHhZxIfWn5h-26" value="--output-type z" style="text;strokeColor=none;fillColor=none;align=left;verticalAlign=top;spacingLeft=4;spacingRight=4;overflow=hidden;rotatable=0;points=[[0,0.5],[1,0.5]];portConstraint=eastwest;" vertex="1" parent="TDv3wZ2uZHHhZxIfWn5h-25">
          <mxGeometry y="26" width="200" height="26" as="geometry" />
        </mxCell>
        <mxCell id="TDv3wZ2uZHHhZxIfWn5h-27" value="--output &quot;{{ temp_dir }}/{{ pair.name }}_{{ aligner }}.mutect2.raw.vcf.gz&quot;" style="text;strokeColor=none;fillColor=none;align=left;verticalAlign=top;spacingLeft=4;spacingRight=4;overflow=hidden;rotatable=0;points=[[0,0.5],[1,0.5]];portConstraint=eastwest;" vertex="1" parent="TDv3wZ2uZHHhZxIfWn5h-25">
          <mxGeometry y="52" width="200" height="26" as="geometry" />
        </mxCell>
        <mxCell id="TDv3wZ2uZHHhZxIfWn5h-28" value="&quot;{{ temp_dir }}/{{ loop.index }}.mutect2.vcf.gz&quot;" style="text;strokeColor=none;fillColor=none;align=left;verticalAlign=top;spacingLeft=4;spacingRight=4;overflow=hidden;rotatable=0;points=[[0,0.5],[1,0.5]];portConstraint=eastwest;" vertex="1" parent="TDv3wZ2uZHHhZxIfWn5h-25">
          <mxGeometry y="78" width="200" height="26" as="geometry" />
        </mxCell>
        <mxCell id="TDv3wZ2uZHHhZxIfWn5h-29" value="bcftools index" style="swimlane;fontStyle=0;childLayout=stackLayout;horizontal=1;startSize=26;fillColor=none;horizontalStack=0;resizeParent=1;resizeParentMax=0;resizeLast=0;collapsible=1;marginBottom=0;" vertex="1" parent="TDv3wZ2uZHHhZxIfWn5h-24">
          <mxGeometry y="130" width="200" height="104" as="geometry">
            <mxRectangle y="52" width="315" height="26" as="alternateBounds" />
          </mxGeometry>
        </mxCell>
        <mxCell id="TDv3wZ2uZHHhZxIfWn5h-30" value="--tbi" style="text;strokeColor=none;fillColor=none;align=left;verticalAlign=top;spacingLeft=4;spacingRight=4;overflow=hidden;rotatable=0;points=[[0,0.5],[1,0.5]];portConstraint=eastwest;" vertex="1" parent="TDv3wZ2uZHHhZxIfWn5h-29">
          <mxGeometry y="26" width="200" height="26" as="geometry" />
        </mxCell>
        <mxCell id="TDv3wZ2uZHHhZxIfWn5h-31" value="--force" style="text;strokeColor=none;fillColor=none;align=left;verticalAlign=top;spacingLeft=4;spacingRight=4;overflow=hidden;rotatable=0;points=[[0,0.5],[1,0.5]];portConstraint=eastwest;" vertex="1" parent="TDv3wZ2uZHHhZxIfWn5h-29">
          <mxGeometry y="52" width="200" height="26" as="geometry" />
        </mxCell>
        <mxCell id="TDv3wZ2uZHHhZxIfWn5h-32" value="&quot;{{ temp_dir }}/{{ pair.name }}_{{ aligner }}.mutect2.raw.vcf.gz&quot;" style="text;strokeColor=none;fillColor=none;align=left;verticalAlign=top;spacingLeft=4;spacingRight=4;overflow=hidden;rotatable=0;points=[[0,0.5],[1,0.5]];portConstraint=eastwest;" vertex="1" parent="TDv3wZ2uZHHhZxIfWn5h-29">
          <mxGeometry y="78" width="200" height="26" as="geometry" />
        </mxCell>
        <mxCell id="TDv3wZ2uZHHhZxIfWn5h-33" style="edgeStyle=orthogonalEdgeStyle;rounded=0;orthogonalLoop=1;jettySize=auto;html=1;exitX=1;exitY=0.5;exitDx=0;exitDy=0;entryX=0;entryY=0.5;entryDx=0;entryDy=0;endArrow=ERmany;endFill=0;startArrow=ERmany;startFill=0;" edge="1" parent="1" source="TDv3wZ2uZHHhZxIfWn5h-43" target="TDv3wZ2uZHHhZxIfWn5h-28">
          <mxGeometry relative="1" as="geometry" />
        </mxCell>
        <mxCell id="TDv3wZ2uZHHhZxIfWn5h-34" value="mutect2" style="swimlane;fontStyle=0;childLayout=stackLayout;horizontal=1;startSize=26;fillColor=none;horizontalStack=0;resizeParent=1;resizeParentMax=0;resizeLast=0;collapsible=1;marginBottom=0;" vertex="1" parent="1">
          <mxGeometry x="220" y="70" width="240" height="260" as="geometry">
            <mxRectangle x="280" y="120" width="80" height="26" as="alternateBounds" />
          </mxGeometry>
        </mxCell>
        <mxCell id="TDv3wZ2uZHHhZxIfWn5h-35" value="Mutect2" style="swimlane;fontStyle=0;childLayout=stackLayout;horizontal=1;startSize=26;fillColor=none;horizontalStack=0;resizeParent=1;resizeParentMax=0;resizeLast=0;collapsible=1;marginBottom=0;direction=east;" vertex="1" parent="TDv3wZ2uZHHhZxIfWn5h-34">
          <mxGeometry y="26" width="240" height="234" as="geometry">
            <mxRectangle y="26" width="240" height="26" as="alternateBounds" />
          </mxGeometry>
        </mxCell>
        <mxCell id="TDv3wZ2uZHHhZxIfWn5h-36" value="--tmp-dir {{ temp_dir }}/temp_mutect2_{{ loop.index }}/" style="text;strokeColor=none;fillColor=none;align=left;verticalAlign=top;spacingLeft=4;spacingRight=4;overflow=hidden;rotatable=0;points=[[0,0.5],[1,0.5]];portConstraint=eastwest;" vertex="1" parent="TDv3wZ2uZHHhZxIfWn5h-35">
          <mxGeometry y="26" width="240" height="26" as="geometry" />
        </mxCell>
        <mxCell id="TDv3wZ2uZHHhZxIfWn5h-37" value="--reference {{ constants.phoenix.reference_fasta }}" style="text;strokeColor=none;fillColor=none;align=left;verticalAlign=top;spacingLeft=4;spacingRight=4;overflow=hidden;rotatable=0;points=[[0,0.5],[1,0.5]];portConstraint=eastwest;" vertex="1" parent="TDv3wZ2uZHHhZxIfWn5h-35">
          <mxGeometry y="52" width="240" height="26" as="geometry" />
        </mxCell>
        <mxCell id="TDv3wZ2uZHHhZxIfWn5h-38" value="--germline-resource {{ constants.phoenix.gnomad_genome_mutect_germlinereference }}" style="text;strokeColor=none;fillColor=none;align=left;verticalAlign=top;spacingLeft=4;spacingRight=4;overflow=hidden;rotatable=0;points=[[0,0.5],[1,0.5]];portConstraint=eastwest;" vertex="1" parent="TDv3wZ2uZHHhZxIfWn5h-35">
          <mxGeometry y="78" width="240" height="26" as="geometry" />
        </mxCell>
        <mxCell id="TDv3wZ2uZHHhZxIfWn5h-39" value="--input &quot;{{ normal_bam }}&quot;" style="text;strokeColor=none;fillColor=none;align=left;verticalAlign=top;spacingLeft=4;spacingRight=4;overflow=hidden;rotatable=0;points=[[0,0.5],[1,0.5]];portConstraint=eastwest;" vertex="1" parent="TDv3wZ2uZHHhZxIfWn5h-35">
          <mxGeometry y="104" width="240" height="26" as="geometry" />
        </mxCell>
        <mxCell id="TDv3wZ2uZHHhZxIfWn5h-40" value="--normal-sample &quot;{{ pair.normal.rgsm }}&quot;" style="text;strokeColor=none;fillColor=none;align=left;verticalAlign=top;spacingLeft=4;spacingRight=4;overflow=hidden;rotatable=0;points=[[0,0.5],[1,0.5]];portConstraint=eastwest;" vertex="1" parent="TDv3wZ2uZHHhZxIfWn5h-35">
          <mxGeometry y="130" width="240" height="26" as="geometry" />
        </mxCell>
        <mxCell id="TDv3wZ2uZHHhZxIfWn5h-41" value="--input &quot;{{ tumor_bam }}&quot;" style="text;strokeColor=none;fillColor=none;align=left;verticalAlign=top;spacingLeft=4;spacingRight=4;overflow=hidden;rotatable=0;points=[[0,0.5],[1,0.5]];portConstraint=eastwest;" vertex="1" parent="TDv3wZ2uZHHhZxIfWn5h-35">
          <mxGeometry y="156" width="240" height="26" as="geometry" />
        </mxCell>
        <mxCell id="TDv3wZ2uZHHhZxIfWn5h-42" value="--tumor-sample &quot;{{ pair.tumor.rgsm }}&quot;" style="text;strokeColor=none;fillColor=none;align=left;verticalAlign=top;spacingLeft=4;spacingRight=4;overflow=hidden;rotatable=0;points=[[0,0.5],[1,0.5]];portConstraint=eastwest;" vertex="1" parent="TDv3wZ2uZHHhZxIfWn5h-35">
          <mxGeometry y="182" width="240" height="26" as="geometry" />
        </mxCell>
        <mxCell id="TDv3wZ2uZHHhZxIfWn5h-43" value="--output &quot;{{ temp_dir }}/{{ loop.index }}.mutect2.vcf.gz&quot;" style="text;strokeColor=none;fillColor=none;align=left;verticalAlign=top;spacingLeft=4;spacingRight=4;overflow=hidden;rotatable=0;points=[[0,0.5],[1,0.5]];portConstraint=eastwest;" vertex="1" parent="TDv3wZ2uZHHhZxIfWn5h-35">
          <mxGeometry y="208" width="240" height="26" as="geometry" />
        </mxCell>
        <mxCell id="TDv3wZ2uZHHhZxIfWn5h-44" value="mutect2_merge_stats" style="swimlane;fontStyle=0;childLayout=stackLayout;horizontal=1;startSize=26;fillColor=none;horizontalStack=0;resizeParent=1;resizeParentMax=0;resizeLast=0;collapsible=1;marginBottom=0;direction=east;" vertex="1" parent="1">
          <mxGeometry x="540" y="180" width="200" height="130" as="geometry">
            <mxRectangle x="600" y="230" width="160" height="26" as="alternateBounds" />
          </mxGeometry>
        </mxCell>
        <mxCell id="TDv3wZ2uZHHhZxIfWn5h-45" value="gatk MergeMutectStats" style="swimlane;fontStyle=0;childLayout=stackLayout;horizontal=1;startSize=26;fillColor=none;horizontalStack=0;resizeParent=1;resizeParentMax=0;resizeLast=0;collapsible=1;marginBottom=0;" vertex="1" parent="TDv3wZ2uZHHhZxIfWn5h-44">
          <mxGeometry y="26" width="200" height="104" as="geometry" />
        </mxCell>
        <mxCell id="TDv3wZ2uZHHhZxIfWn5h-46" value="--tmp-dir {{ temp_dir }}/temp_stats/" style="text;strokeColor=none;fillColor=none;align=left;verticalAlign=top;spacingLeft=4;spacingRight=4;overflow=hidden;rotatable=0;points=[[0,0.5],[1,0.5]];portConstraint=eastwest;" vertex="1" parent="TDv3wZ2uZHHhZxIfWn5h-45">
          <mxGeometry y="26" width="200" height="26" as="geometry" />
        </mxCell>
        <mxCell id="TDv3wZ2uZHHhZxIfWn5h-47" value="-stats &quot;{{ temp_dir }}/{{ loop.index }}.mutect2.vcf.gz.stats&quot;" style="text;strokeColor=none;fillColor=none;align=left;verticalAlign=top;spacingLeft=4;spacingRight=4;overflow=hidden;rotatable=0;points=[[0,0.5],[1,0.5]];portConstraint=eastwest;" vertex="1" parent="TDv3wZ2uZHHhZxIfWn5h-45">
          <mxGeometry y="52" width="200" height="26" as="geometry" />
        </mxCell>
        <mxCell id="TDv3wZ2uZHHhZxIfWn5h-48" value="-O &quot;{{ temp_dir }}/merged.stats&quot;" style="text;strokeColor=none;fillColor=none;align=left;verticalAlign=top;spacingLeft=4;spacingRight=4;overflow=hidden;rotatable=0;points=[[0,0.5],[1,0.5]];portConstraint=eastwest;" vertex="1" parent="TDv3wZ2uZHHhZxIfWn5h-45">
          <mxGeometry y="78" width="200" height="26" as="geometry" />
        </mxCell>
        <mxCell id="TDv3wZ2uZHHhZxIfWn5h-49" style="edgeStyle=orthogonalEdgeStyle;rounded=0;orthogonalLoop=1;jettySize=auto;html=1;exitX=1;exitY=0.5;exitDx=0;exitDy=0;entryX=0;entryY=0.5;entryDx=0;entryDy=0;" edge="1" parent="1" source="TDv3wZ2uZHHhZxIfWn5h-35" target="TDv3wZ2uZHHhZxIfWn5h-47">
          <mxGeometry relative="1" as="geometry" />
        </mxCell>
        <mxCell id="TDv3wZ2uZHHhZxIfWn5h-50" value="mutect2_learn_readorientationmodel" style="swimlane;fontStyle=0;childLayout=stackLayout;horizontal=1;startSize=26;fillColor=none;horizontalStack=0;resizeParent=1;resizeParentMax=0;resizeLast=0;collapsible=1;marginBottom=0;direction=east;" vertex="1" parent="1">
          <mxGeometry x="540" y="40" width="200" height="130" as="geometry">
            <mxRectangle x="600" y="90" width="200" height="26" as="alternateBounds" />
          </mxGeometry>
        </mxCell>
        <mxCell id="TDv3wZ2uZHHhZxIfWn5h-51" value="gatk LearnReadOrientationModel" style="swimlane;fontStyle=0;childLayout=stackLayout;horizontal=1;startSize=26;fillColor=none;horizontalStack=0;resizeParent=1;resizeParentMax=0;resizeLast=0;collapsible=1;marginBottom=0;" vertex="1" parent="TDv3wZ2uZHHhZxIfWn5h-50">
          <mxGeometry y="26" width="200" height="104" as="geometry" />
        </mxCell>
        <mxCell id="TDv3wZ2uZHHhZxIfWn5h-52" value="--tmp-dir {{ temp_dir }}/temp_readorientationmodel/" style="text;strokeColor=none;fillColor=none;align=left;verticalAlign=top;spacingLeft=4;spacingRight=4;overflow=hidden;rotatable=0;points=[[0,0.5],[1,0.5]];portConstraint=eastwest;" vertex="1" parent="TDv3wZ2uZHHhZxIfWn5h-51">
          <mxGeometry y="26" width="200" height="26" as="geometry" />
        </mxCell>
        <mxCell id="TDv3wZ2uZHHhZxIfWn5h-53" value="-I &quot;{{ temp_dir }}/{{ loop.index }}.f1r2.tar.gz&quot;" style="text;strokeColor=none;fillColor=none;align=left;verticalAlign=top;spacingLeft=4;spacingRight=4;overflow=hidden;rotatable=0;points=[[0,0.5],[1,0.5]];portConstraint=eastwest;" vertex="1" parent="TDv3wZ2uZHHhZxIfWn5h-51">
          <mxGeometry y="52" width="200" height="26" as="geometry" />
        </mxCell>
        <mxCell id="TDv3wZ2uZHHhZxIfWn5h-54" value="-O {{ temp_dir }}/artifact-priors.tar.gz" style="text;strokeColor=none;fillColor=none;align=left;verticalAlign=top;spacingLeft=4;spacingRight=4;overflow=hidden;rotatable=0;points=[[0,0.5],[1,0.5]];portConstraint=eastwest;" vertex="1" parent="TDv3wZ2uZHHhZxIfWn5h-51">
          <mxGeometry y="78" width="200" height="26" as="geometry" />
        </mxCell>
        <mxCell id="TDv3wZ2uZHHhZxIfWn5h-55" value="mutect2_merge_pileup_summaries" style="swimlane;fontStyle=0;childLayout=stackLayout;horizontal=1;startSize=26;fillColor=none;horizontalStack=0;resizeParent=1;resizeParentMax=0;resizeLast=0;collapsible=1;marginBottom=0;" vertex="1" parent="1">
          <mxGeometry x="540" y="560" width="200" height="286" as="geometry">
            <mxRectangle x="600" y="610" width="200" height="26" as="alternateBounds" />
          </mxGeometry>
        </mxCell>
        <mxCell id="TDv3wZ2uZHHhZxIfWn5h-56" value="gatk GatherPileupSummaries" style="swimlane;fontStyle=0;childLayout=stackLayout;horizontal=1;startSize=26;fillColor=none;horizontalStack=0;resizeParent=1;resizeParentMax=0;resizeLast=0;collapsible=1;marginBottom=0;" vertex="1" parent="TDv3wZ2uZHHhZxIfWn5h-55">
          <mxGeometry y="26" width="200" height="130" as="geometry" />
        </mxCell>
        <mxCell id="TDv3wZ2uZHHhZxIfWn5h-57" value="--tmp-dir {{ temp_dir }}/temp_merge_tumor/" style="text;strokeColor=none;fillColor=none;align=left;verticalAlign=top;spacingLeft=4;spacingRight=4;overflow=hidden;rotatable=0;points=[[0,0.5],[1,0.5]];portConstraint=eastwest;" vertex="1" parent="TDv3wZ2uZHHhZxIfWn5h-56">
          <mxGeometry y="26" width="200" height="26" as="geometry" />
        </mxCell>
        <mxCell id="TDv3wZ2uZHHhZxIfWn5h-58" value="--sequence-dictionary {{ constants.phoenix.reference_dict }}" style="text;strokeColor=none;fillColor=none;align=left;verticalAlign=top;spacingLeft=4;spacingRight=4;overflow=hidden;rotatable=0;points=[[0,0.5],[1,0.5]];portConstraint=eastwest;" vertex="1" parent="TDv3wZ2uZHHhZxIfWn5h-56">
          <mxGeometry y="52" width="200" height="26" as="geometry" />
        </mxCell>
        <mxCell id="TDv3wZ2uZHHhZxIfWn5h-59" value="-I &quot;{{ temp_dir }}/{{ loop.index }}.tumor-pileups.table&quot;" style="text;strokeColor=none;fillColor=none;align=left;verticalAlign=top;spacingLeft=4;spacingRight=4;overflow=hidden;rotatable=0;points=[[0,0.5],[1,0.5]];portConstraint=eastwest;" vertex="1" parent="TDv3wZ2uZHHhZxIfWn5h-56">
          <mxGeometry y="78" width="200" height="26" as="geometry" />
        </mxCell>
        <mxCell id="TDv3wZ2uZHHhZxIfWn5h-60" value="-O {{ temp_dir }}/merged.tumor-pileups.table.tsv" style="text;strokeColor=none;fillColor=none;align=left;verticalAlign=top;spacingLeft=4;spacingRight=4;overflow=hidden;rotatable=0;points=[[0,0.5],[1,0.5]];portConstraint=eastwest;" vertex="1" parent="TDv3wZ2uZHHhZxIfWn5h-56">
          <mxGeometry y="104" width="200" height="26" as="geometry" />
        </mxCell>
        <mxCell id="TDv3wZ2uZHHhZxIfWn5h-61" value="gatk GatherPileupSummaries" style="swimlane;fontStyle=0;childLayout=stackLayout;horizontal=1;startSize=26;fillColor=none;horizontalStack=0;resizeParent=1;resizeParentMax=0;resizeLast=0;collapsible=1;marginBottom=0;" vertex="1" parent="TDv3wZ2uZHHhZxIfWn5h-55">
          <mxGeometry y="156" width="200" height="130" as="geometry" />
        </mxCell>
        <mxCell id="TDv3wZ2uZHHhZxIfWn5h-62" value="--tmp-dir {{ temp_dir }}/temp_merge_normal/" style="text;strokeColor=none;fillColor=none;align=left;verticalAlign=top;spacingLeft=4;spacingRight=4;overflow=hidden;rotatable=0;points=[[0,0.5],[1,0.5]];portConstraint=eastwest;" vertex="1" parent="TDv3wZ2uZHHhZxIfWn5h-61">
          <mxGeometry y="26" width="200" height="26" as="geometry" />
        </mxCell>
        <mxCell id="TDv3wZ2uZHHhZxIfWn5h-63" value="--sequence-dictionary {{ constants.phoenix.reference_dict }}" style="text;strokeColor=none;fillColor=none;align=left;verticalAlign=top;spacingLeft=4;spacingRight=4;overflow=hidden;rotatable=0;points=[[0,0.5],[1,0.5]];portConstraint=eastwest;" vertex="1" parent="TDv3wZ2uZHHhZxIfWn5h-61">
          <mxGeometry y="52" width="200" height="26" as="geometry" />
        </mxCell>
        <mxCell id="TDv3wZ2uZHHhZxIfWn5h-64" value="-I &quot;{{ temp_dir }}/{{ loop.index }}.normal-pileups.table&quot;" style="text;strokeColor=none;fillColor=none;align=left;verticalAlign=top;spacingLeft=4;spacingRight=4;overflow=hidden;rotatable=0;points=[[0,0.5],[1,0.5]];portConstraint=eastwest;" vertex="1" parent="TDv3wZ2uZHHhZxIfWn5h-61">
          <mxGeometry y="78" width="200" height="26" as="geometry" />
        </mxCell>
        <mxCell id="TDv3wZ2uZHHhZxIfWn5h-65" value="-O {{ temp_dir }}/merged.normal-pileups.table.tsv" style="text;strokeColor=none;fillColor=none;align=left;verticalAlign=top;spacingLeft=4;spacingRight=4;overflow=hidden;rotatable=0;points=[[0,0.5],[1,0.5]];portConstraint=eastwest;" vertex="1" parent="TDv3wZ2uZHHhZxIfWn5h-61">
          <mxGeometry y="104" width="200" height="26" as="geometry" />
        </mxCell>
        <mxCell id="TDv3wZ2uZHHhZxIfWn5h-66" value="mutect2_calculate_contamination" style="swimlane;fontStyle=0;childLayout=stackLayout;horizontal=1;startSize=26;fillColor=none;horizontalStack=0;resizeParent=1;resizeParentMax=0;resizeLast=0;collapsible=1;marginBottom=0;direction=east;" vertex="1" parent="1">
          <mxGeometry x="820" y="664" width="210" height="182" as="geometry">
            <mxRectangle x="910" y="560" width="200" height="26" as="alternateBounds" />
          </mxGeometry>
        </mxCell>
        <mxCell id="TDv3wZ2uZHHhZxIfWn5h-67" value="gatk CalculateContamination" style="swimlane;fontStyle=0;childLayout=stackLayout;horizontal=1;startSize=26;fillColor=none;horizontalStack=0;resizeParent=1;resizeParentMax=0;resizeLast=0;collapsible=1;marginBottom=0;" vertex="1" parent="TDv3wZ2uZHHhZxIfWn5h-66">
          <mxGeometry y="26" width="210" height="156" as="geometry" />
        </mxCell>
        <mxCell id="TDv3wZ2uZHHhZxIfWn5h-68" value="--tmp-dir {{ temp_dir }}/temp_calculate_contamination/" style="text;strokeColor=none;fillColor=none;align=left;verticalAlign=top;spacingLeft=4;spacingRight=4;overflow=hidden;rotatable=0;points=[[0,0.5],[1,0.5]];portConstraint=eastwest;" vertex="1" parent="TDv3wZ2uZHHhZxIfWn5h-67">
          <mxGeometry y="26" width="210" height="26" as="geometry" />
        </mxCell>
        <mxCell id="TDv3wZ2uZHHhZxIfWn5h-69" value="-I &quot;{{ temp_dir }}/merged.tumor-pileups.table.tsv&quot;" style="text;strokeColor=none;fillColor=none;align=left;verticalAlign=top;spacingLeft=4;spacingRight=4;overflow=hidden;rotatable=0;points=[[0,0.5],[1,0.5]];portConstraint=eastwest;" vertex="1" parent="TDv3wZ2uZHHhZxIfWn5h-67">
          <mxGeometry y="52" width="210" height="26" as="geometry" />
        </mxCell>
        <mxCell id="TDv3wZ2uZHHhZxIfWn5h-70" value="-matched &quot;{{ temp_dir }}/merged.normal-pileups.table.tsv&quot;" style="text;strokeColor=none;fillColor=none;align=left;verticalAlign=top;spacingLeft=4;spacingRight=4;overflow=hidden;rotatable=0;points=[[0,0.5],[1,0.5]];portConstraint=eastwest;" vertex="1" parent="TDv3wZ2uZHHhZxIfWn5h-67">
          <mxGeometry y="78" width="210" height="26" as="geometry" />
        </mxCell>
        <mxCell id="TDv3wZ2uZHHhZxIfWn5h-71" value="-O &quot;{{ temp_dir }}/contamination.table&quot;" style="text;strokeColor=none;fillColor=none;align=left;verticalAlign=top;spacingLeft=4;spacingRight=4;overflow=hidden;rotatable=0;points=[[0,0.5],[1,0.5]];portConstraint=eastwest;" vertex="1" parent="TDv3wZ2uZHHhZxIfWn5h-67">
          <mxGeometry y="104" width="210" height="26" as="geometry" />
        </mxCell>
        <mxCell id="TDv3wZ2uZHHhZxIfWn5h-72" value="--tumor-segmentation &quot;{{ temp_dir }}/segments.table&quot;" style="text;strokeColor=none;fillColor=none;align=left;verticalAlign=top;spacingLeft=4;spacingRight=4;overflow=hidden;rotatable=0;points=[[0,0.5],[1,0.5]];portConstraint=eastwest;" vertex="1" parent="TDv3wZ2uZHHhZxIfWn5h-67">
          <mxGeometry y="130" width="210" height="26" as="geometry" />
        </mxCell>
        <mxCell id="TDv3wZ2uZHHhZxIfWn5h-73" value="mutect2_filter_calls" style="swimlane;fontStyle=0;childLayout=stackLayout;horizontal=1;startSize=26;fillColor=none;horizontalStack=0;resizeParent=1;resizeParentMax=0;resizeLast=0;collapsible=1;marginBottom=0;direction=east;" vertex="1" parent="1">
          <mxGeometry x="820" y="40" width="210" height="312" as="geometry">
            <mxRectangle x="1190" y="120" width="130" height="26" as="alternateBounds" />
          </mxGeometry>
        </mxCell>
        <mxCell id="TDv3wZ2uZHHhZxIfWn5h-74" value="gatk FilterMutectCalls" style="swimlane;fontStyle=0;childLayout=stackLayout;horizontal=1;startSize=26;fillColor=none;horizontalStack=0;resizeParent=1;resizeParentMax=0;resizeLast=0;collapsible=1;marginBottom=0;" vertex="1" parent="TDv3wZ2uZHHhZxIfWn5h-73">
          <mxGeometry y="26" width="210" height="286" as="geometry" />
        </mxCell>
        <mxCell id="TDv3wZ2uZHHhZxIfWn5h-75" value="--tmp-dir {{ temp_dir }}/temp_filter/" style="text;strokeColor=none;fillColor=none;align=left;verticalAlign=top;spacingLeft=4;spacingRight=4;overflow=hidden;rotatable=0;points=[[0,0.5],[1,0.5]];portConstraint=eastwest;" vertex="1" parent="TDv3wZ2uZHHhZxIfWn5h-74">
          <mxGeometry y="26" width="210" height="26" as="geometry" />
        </mxCell>
        <mxCell id="TDv3wZ2uZHHhZxIfWn5h-76" value="--reference {{ constants.phoenix.reference_fasta }}" style="text;strokeColor=none;fillColor=none;align=left;verticalAlign=top;spacingLeft=4;spacingRight=4;overflow=hidden;rotatable=0;points=[[0,0.5],[1,0.5]];portConstraint=eastwest;" vertex="1" parent="TDv3wZ2uZHHhZxIfWn5h-74">
          <mxGeometry y="52" width="210" height="26" as="geometry" />
        </mxCell>
        <mxCell id="TDv3wZ2uZHHhZxIfWn5h-77" value="--max-alt-allele-count 2" style="text;strokeColor=none;fillColor=none;align=left;verticalAlign=top;spacingLeft=4;spacingRight=4;overflow=hidden;rotatable=0;points=[[0,0.5],[1,0.5]];portConstraint=eastwest;" vertex="1" parent="TDv3wZ2uZHHhZxIfWn5h-74">
          <mxGeometry y="78" width="210" height="26" as="geometry" />
        </mxCell>
        <mxCell id="TDv3wZ2uZHHhZxIfWn5h-78" value="--ob-priors &quot;{{ temp_dir }}/artifact-priors.tar.gz&quot;" style="text;strokeColor=none;fillColor=none;align=left;verticalAlign=top;spacingLeft=4;spacingRight=4;overflow=hidden;rotatable=0;points=[[0,0.5],[1,0.5]];portConstraint=eastwest;" vertex="1" parent="TDv3wZ2uZHHhZxIfWn5h-74">
          <mxGeometry y="104" width="210" height="26" as="geometry" />
        </mxCell>
        <mxCell id="TDv3wZ2uZHHhZxIfWn5h-79" value="--stats &quot;{{ temp_dir }}/merged.stats&quot;" style="text;strokeColor=none;fillColor=none;align=left;verticalAlign=top;spacingLeft=4;spacingRight=4;overflow=hidden;rotatable=0;points=[[0,0.5],[1,0.5]];portConstraint=eastwest;" vertex="1" parent="TDv3wZ2uZHHhZxIfWn5h-74">
          <mxGeometry y="130" width="210" height="26" as="geometry" />
        </mxCell>
        <mxCell id="TDv3wZ2uZHHhZxIfWn5h-80" value="--variant &quot;{{ temp_dir }}/{{ pair.name }}_{{ aligner }}.mutect2.raw.vcf.gz&quot;" style="text;strokeColor=none;fillColor=none;align=left;verticalAlign=top;spacingLeft=4;spacingRight=4;overflow=hidden;rotatable=0;points=[[0,0.5],[1,0.5]];portConstraint=eastwest;" vertex="1" parent="TDv3wZ2uZHHhZxIfWn5h-74">
          <mxGeometry y="156" width="210" height="26" as="geometry" />
        </mxCell>
        <mxCell id="TDv3wZ2uZHHhZxIfWn5h-81" value="--contamination-table &quot;{{ temp_dir }}/contamination.table&quot;" style="text;strokeColor=none;fillColor=none;align=left;verticalAlign=top;spacingLeft=4;spacingRight=4;overflow=hidden;rotatable=0;points=[[0,0.5],[1,0.5]];portConstraint=eastwest;" vertex="1" parent="TDv3wZ2uZHHhZxIfWn5h-74">
          <mxGeometry y="182" width="210" height="26" as="geometry" />
        </mxCell>
        <mxCell id="TDv3wZ2uZHHhZxIfWn5h-82" value="--tumor-segmentation &quot;{{ temp_dir }}/segments.table&quot;" style="text;strokeColor=none;fillColor=none;align=left;verticalAlign=top;spacingLeft=4;spacingRight=4;overflow=hidden;rotatable=0;points=[[0,0.5],[1,0.5]];portConstraint=eastwest;" vertex="1" parent="TDv3wZ2uZHHhZxIfWn5h-74">
          <mxGeometry y="208" width="210" height="26" as="geometry" />
        </mxCell>
        <mxCell id="TDv3wZ2uZHHhZxIfWn5h-83" value="--filtering-stats &quot;{{ temp_dir }}/filtering.stats&quot;" style="text;strokeColor=none;fillColor=none;align=left;verticalAlign=top;spacingLeft=4;spacingRight=4;overflow=hidden;rotatable=0;points=[[0,0.5],[1,0.5]];portConstraint=eastwest;" vertex="1" parent="TDv3wZ2uZHHhZxIfWn5h-74">
          <mxGeometry y="234" width="210" height="26" as="geometry" />
        </mxCell>
        <mxCell id="TDv3wZ2uZHHhZxIfWn5h-84" value="--output &quot;{{ all_vcf }}&quot;" style="text;strokeColor=none;fillColor=none;align=left;verticalAlign=top;spacingLeft=4;spacingRight=4;overflow=hidden;rotatable=0;points=[[0,0.5],[1,0.5]];portConstraint=eastwest;" vertex="1" parent="TDv3wZ2uZHHhZxIfWn5h-74">
          <mxGeometry y="260" width="210" height="26" as="geometry" />
        </mxCell>
        <mxCell id="TDv3wZ2uZHHhZxIfWn5h-85" value="mutect2_filter_variants" style="swimlane;fontStyle=0;childLayout=stackLayout;horizontal=1;startSize=26;fillColor=none;horizontalStack=0;resizeParent=1;resizeParentMax=0;resizeLast=0;collapsible=1;marginBottom=0;direction=east;" vertex="1" parent="1">
          <mxGeometry x="1120" y="197" width="210" height="286" as="geometry">
            <mxRectangle x="1190" y="480" width="130" height="26" as="alternateBounds" />
          </mxGeometry>
        </mxCell>
        <mxCell id="TDv3wZ2uZHHhZxIfWn5h-86" value="bcftools filter" style="swimlane;fontStyle=0;childLayout=stackLayout;horizontal=1;startSize=26;fillColor=none;horizontalStack=0;resizeParent=1;resizeParentMax=0;resizeLast=0;collapsible=1;marginBottom=0;" vertex="1" parent="TDv3wZ2uZHHhZxIfWn5h-85">
          <mxGeometry y="26" width="210" height="260" as="geometry">
            <mxRectangle y="78" width="315" height="26" as="alternateBounds" />
          </mxGeometry>
        </mxCell>
        <mxCell id="TDv3wZ2uZHHhZxIfWn5h-87" value="--output-type z" style="text;strokeColor=none;fillColor=none;align=left;verticalAlign=top;spacingLeft=4;spacingRight=4;overflow=hidden;rotatable=0;points=[[0,0.5],[1,0.5]];portConstraint=eastwest;" vertex="1" parent="TDv3wZ2uZHHhZxIfWn5h-86">
          <mxGeometry y="26" width="210" height="26" as="geometry" />
        </mxCell>
        <mxCell id="TDv3wZ2uZHHhZxIfWn5h-88" value="--include &#39;FILTER == &quot;PASS&quot;&#39;" style="text;strokeColor=none;fillColor=none;align=left;verticalAlign=top;spacingLeft=4;spacingRight=4;overflow=hidden;rotatable=0;points=[[0,0.5],[1,0.5]];portConstraint=eastwest;" vertex="1" parent="TDv3wZ2uZHHhZxIfWn5h-86">
          <mxGeometry y="52" width="210" height="26" as="geometry" />
        </mxCell>
        <mxCell id="TDv3wZ2uZHHhZxIfWn5h-89" value="--targets-file &quot;{{ pair.tumor.capture_kit.extended_bed }}&quot;" style="text;fillColor=#f5f5f5;align=left;verticalAlign=top;spacingLeft=4;spacingRight=4;overflow=hidden;rotatable=0;points=[[0,0.5],[1,0.5]];portConstraint=eastwest;fontColor=#333333;strokeColor=#666666;" vertex="1" parent="TDv3wZ2uZHHhZxIfWn5h-86">
          <mxGeometry y="78" width="210" height="26" as="geometry" />
        </mxCell>
        <mxCell id="TDv3wZ2uZHHhZxIfWn5h-90" value="&quot;{{ all_vcf }}&quot;" style="text;strokeColor=none;fillColor=none;align=left;verticalAlign=top;spacingLeft=4;spacingRight=4;overflow=hidden;rotatable=0;points=[[0,0.5],[1,0.5]];portConstraint=eastwest;" vertex="1" parent="TDv3wZ2uZHHhZxIfWn5h-86">
          <mxGeometry y="104" width="210" height="26" as="geometry" />
        </mxCell>
        <mxCell id="TDv3wZ2uZHHhZxIfWn5h-91" style="edgeStyle=orthogonalEdgeStyle;rounded=0;orthogonalLoop=1;jettySize=auto;html=1;exitX=1;exitY=0.5;exitDx=0;exitDy=0;entryX=1;entryY=0.5;entryDx=0;entryDy=0;" edge="1" parent="TDv3wZ2uZHHhZxIfWn5h-86" source="TDv3wZ2uZHHhZxIfWn5h-92" target="TDv3wZ2uZHHhZxIfWn5h-96">
          <mxGeometry relative="1" as="geometry" />
        </mxCell>
        <mxCell id="TDv3wZ2uZHHhZxIfWn5h-92" value="&gt; &quot;{{ pass_vcf }}&quot;" style="text;strokeColor=none;fillColor=none;align=left;verticalAlign=top;spacingLeft=4;spacingRight=4;overflow=hidden;rotatable=0;points=[[0,0.5],[1,0.5]];portConstraint=eastwest;" vertex="1" parent="TDv3wZ2uZHHhZxIfWn5h-86">
          <mxGeometry y="130" width="210" height="26" as="geometry" />
        </mxCell>
        <mxCell id="TDv3wZ2uZHHhZxIfWn5h-93" value="bcftools index" style="swimlane;fontStyle=0;childLayout=stackLayout;horizontal=1;startSize=26;fillColor=none;horizontalStack=0;resizeParent=1;resizeParentMax=0;resizeLast=0;collapsible=1;marginBottom=0;" vertex="1" parent="TDv3wZ2uZHHhZxIfWn5h-86">
          <mxGeometry y="156" width="210" height="104" as="geometry" />
        </mxCell>
        <mxCell id="TDv3wZ2uZHHhZxIfWn5h-94" value="--tbi" style="text;strokeColor=none;fillColor=none;align=left;verticalAlign=top;spacingLeft=4;spacingRight=4;overflow=hidden;rotatable=0;points=[[0,0.5],[1,0.5]];portConstraint=eastwest;" vertex="1" parent="TDv3wZ2uZHHhZxIfWn5h-93">
          <mxGeometry y="26" width="210" height="26" as="geometry" />
        </mxCell>
        <mxCell id="TDv3wZ2uZHHhZxIfWn5h-95" value="--force" style="text;strokeColor=none;fillColor=none;align=left;verticalAlign=top;spacingLeft=4;spacingRight=4;overflow=hidden;rotatable=0;points=[[0,0.5],[1,0.5]];portConstraint=eastwest;" vertex="1" parent="TDv3wZ2uZHHhZxIfWn5h-93">
          <mxGeometry y="52" width="210" height="26" as="geometry" />
        </mxCell>
        <mxCell id="TDv3wZ2uZHHhZxIfWn5h-96" value="&quot;{{ pass_vcf }}&quot;" style="text;strokeColor=none;fillColor=none;align=left;verticalAlign=top;spacingLeft=4;spacingRight=4;overflow=hidden;rotatable=0;points=[[0,0.5],[1,0.5]];portConstraint=eastwest;" vertex="1" parent="TDv3wZ2uZHHhZxIfWn5h-93">
          <mxGeometry y="78" width="210" height="26" as="geometry" />
        </mxCell>
        <mxCell id="TDv3wZ2uZHHhZxIfWn5h-97" style="edgeStyle=orthogonalEdgeStyle;rounded=0;orthogonalLoop=1;jettySize=auto;html=1;exitX=1;exitY=0.5;exitDx=0;exitDy=0;entryX=0;entryY=0.5;entryDx=0;entryDy=0;" edge="1" parent="1" source="TDv3wZ2uZHHhZxIfWn5h-15" target="TDv3wZ2uZHHhZxIfWn5h-64">
          <mxGeometry relative="1" as="geometry" />
        </mxCell>
        <mxCell id="TDv3wZ2uZHHhZxIfWn5h-98" style="edgeStyle=orthogonalEdgeStyle;rounded=0;orthogonalLoop=1;jettySize=auto;html=1;exitX=1;exitY=0.5;exitDx=0;exitDy=0;entryX=0;entryY=0.5;entryDx=0;entryDy=0;" edge="1" parent="1" source="TDv3wZ2uZHHhZxIfWn5h-23" target="TDv3wZ2uZHHhZxIfWn5h-59">
          <mxGeometry relative="1" as="geometry" />
        </mxCell>
        <mxCell id="TDv3wZ2uZHHhZxIfWn5h-99" style="edgeStyle=orthogonalEdgeStyle;rounded=0;orthogonalLoop=1;jettySize=auto;html=1;exitX=1;exitY=0.5;exitDx=0;exitDy=0;entryX=0;entryY=0.5;entryDx=0;entryDy=0;" edge="1" parent="1" source="TDv3wZ2uZHHhZxIfWn5h-35" target="TDv3wZ2uZHHhZxIfWn5h-53">
          <mxGeometry relative="1" as="geometry" />
        </mxCell>
        <mxCell id="TDv3wZ2uZHHhZxIfWn5h-100" style="edgeStyle=orthogonalEdgeStyle;rounded=0;orthogonalLoop=1;jettySize=auto;html=1;exitX=1;exitY=0.5;exitDx=0;exitDy=0;entryX=0;entryY=0.5;entryDx=0;entryDy=0;" edge="1" parent="1" source="TDv3wZ2uZHHhZxIfWn5h-60" target="TDv3wZ2uZHHhZxIfWn5h-69">
          <mxGeometry relative="1" as="geometry" />
        </mxCell>
        <mxCell id="TDv3wZ2uZHHhZxIfWn5h-101" style="edgeStyle=orthogonalEdgeStyle;rounded=0;orthogonalLoop=1;jettySize=auto;html=1;exitX=1;exitY=0.5;exitDx=0;exitDy=0;entryX=0;entryY=0.5;entryDx=0;entryDy=0;" edge="1" parent="1" source="TDv3wZ2uZHHhZxIfWn5h-54" target="TDv3wZ2uZHHhZxIfWn5h-78">
          <mxGeometry relative="1" as="geometry" />
        </mxCell>
        <mxCell id="TDv3wZ2uZHHhZxIfWn5h-102" style="edgeStyle=orthogonalEdgeStyle;rounded=0;orthogonalLoop=1;jettySize=auto;html=1;exitX=1;exitY=0.5;exitDx=0;exitDy=0;entryX=0;entryY=0.5;entryDx=0;entryDy=0;" edge="1" parent="1" source="TDv3wZ2uZHHhZxIfWn5h-28" target="TDv3wZ2uZHHhZxIfWn5h-80">
          <mxGeometry relative="1" as="geometry" />
        </mxCell>
        <mxCell id="TDv3wZ2uZHHhZxIfWn5h-103" style="edgeStyle=orthogonalEdgeStyle;rounded=0;orthogonalLoop=1;jettySize=auto;html=1;exitX=1;exitY=0.5;exitDx=0;exitDy=0;entryX=0;entryY=0.5;entryDx=0;entryDy=0;" edge="1" parent="1" source="TDv3wZ2uZHHhZxIfWn5h-48" target="TDv3wZ2uZHHhZxIfWn5h-79">
          <mxGeometry relative="1" as="geometry" />
        </mxCell>
        <mxCell id="TDv3wZ2uZHHhZxIfWn5h-104" style="edgeStyle=orthogonalEdgeStyle;rounded=0;orthogonalLoop=1;jettySize=auto;html=1;exitX=1;exitY=0.5;exitDx=0;exitDy=0;entryX=0;entryY=0.5;entryDx=0;entryDy=0;" edge="1" parent="1" source="TDv3wZ2uZHHhZxIfWn5h-65" target="TDv3wZ2uZHHhZxIfWn5h-70">
          <mxGeometry relative="1" as="geometry" />
        </mxCell>
        <mxCell id="TDv3wZ2uZHHhZxIfWn5h-105" style="edgeStyle=orthogonalEdgeStyle;rounded=0;orthogonalLoop=1;jettySize=auto;html=1;exitX=1;exitY=0.5;exitDx=0;exitDy=0;entryX=1;entryY=0.5;entryDx=0;entryDy=0;" edge="1" parent="1" source="TDv3wZ2uZHHhZxIfWn5h-71" target="TDv3wZ2uZHHhZxIfWn5h-81">
          <mxGeometry relative="1" as="geometry" />
        </mxCell>
        <mxCell id="TDv3wZ2uZHHhZxIfWn5h-106" style="edgeStyle=orthogonalEdgeStyle;rounded=0;orthogonalLoop=1;jettySize=auto;html=1;exitX=1;exitY=0.5;exitDx=0;exitDy=0;entryX=1;entryY=0.5;entryDx=0;entryDy=0;" edge="1" parent="1" source="TDv3wZ2uZHHhZxIfWn5h-72" target="TDv3wZ2uZHHhZxIfWn5h-82">
          <mxGeometry relative="1" as="geometry" />
        </mxCell>
        <mxCell id="TDv3wZ2uZHHhZxIfWn5h-107" style="edgeStyle=orthogonalEdgeStyle;rounded=0;orthogonalLoop=1;jettySize=auto;html=1;exitX=1;exitY=0.5;exitDx=0;exitDy=0;entryX=0;entryY=0.5;entryDx=0;entryDy=0;" edge="1" parent="1" source="TDv3wZ2uZHHhZxIfWn5h-84" target="TDv3wZ2uZHHhZxIfWn5h-90">
          <mxGeometry relative="1" as="geometry" />
        </mxCell>
      </root>
    </mxGraphModel>
  </diagram>
</mxfile>
